<svg width="16" height="14" viewBox="0 0 16 14" fill="none" xmlns="http://www.w3.org/2000/svg">
<path d="M4.41316 6.64591L2.85016 8.18936C2.66628 8.37095 2.55595 8.58885 2.50079 8.8249L1.34234 7.68093C0.478092 6.8275 0 5.70169 0 4.50324C0 3.3048 0.478092 2.17899 1.34234 1.32555C2.20658 0.472114 3.34664 0 4.56026 0C5.68194 0 6.73006 0.399481 7.55753 1.10765L3.34664 5.28405C3.19954 5.42931 3.12599 5.64721 3.14437 5.86511C3.16276 6.01038 3.23632 6.15564 3.34664 6.26459C3.38342 6.30091 3.43858 6.33722 3.49375 6.37354C3.76957 6.51881 4.08217 6.6096 4.41316 6.64591ZM14.6737 1.32555C12.8901 -0.435798 10.0032 -0.435798 8.23789 1.32555L3.78796 5.70169C3.76957 5.71984 3.76957 5.738 3.76957 5.75616C3.76957 5.77432 3.78796 5.79248 3.80635 5.81064C4.48671 6.19196 5.35095 6.08301 5.92099 5.5201L7.24493 4.21271C7.39204 4.06744 7.57592 3.9585 7.77819 3.90402L9.65378 3.41375C9.81927 3.37743 9.98477 3.46822 10.0399 3.63165C10.0767 3.79507 9.98477 3.9585 9.81927 4.01297L7.94368 4.50324C7.85174 4.5214 7.7598 4.57588 7.68625 4.64851L6.34391 5.97406C6.06809 6.24643 5.7371 6.44617 5.38773 6.55512L3.27309 8.62516C2.99727 8.89754 2.99727 9.33333 3.27309 9.58755C3.54891 9.85992 3.99023 9.85992 4.24766 9.58755L8.18273 5.70169C8.31144 5.57458 8.49533 5.57458 8.62404 5.70169C8.75276 5.82879 8.75276 6.01038 8.62404 6.13748L4.68898 10.0233C4.41316 10.2957 4.41316 10.7315 4.68898 10.9857C4.9648 11.2581 5.40612 11.2581 5.66355 10.9857L9.59862 7.09987C9.65378 7.0454 9.72733 7.00908 9.81927 7.00908C9.89283 7.00908 9.98477 7.0454 10.0399 7.09987C10.0951 7.15434 10.1319 7.22698 10.1319 7.31777C10.1319 7.3904 10.0951 7.48119 10.0399 7.53567L6.10487 11.4215C5.97615 11.5486 5.9026 11.7121 5.9026 11.8936C5.9026 12.0752 5.97615 12.2387 6.10487 12.3839C6.23358 12.511 6.41747 12.5837 6.60135 12.5837C6.78523 12.5837 6.95072 12.511 7.09783 12.3839L11.0329 8.49805C11.0881 8.44358 11.18 8.40726 11.2535 8.40726C11.3271 8.40726 11.419 8.44358 11.4742 8.49805C11.6029 8.62516 11.6029 8.80674 11.4742 8.93385L7.52075 12.8197C7.39204 12.9468 7.31848 13.1284 7.31848 13.31C7.31848 13.4916 7.39204 13.655 7.52075 13.8003C7.64947 13.9274 7.83335 14 8.01723 14C8.20112 14 8.36661 13.9274 8.51371 13.8003L14.6921 7.69909C16.439 5.93774 16.439 3.06874 14.6737 1.32555Z" fill="#1693C3"/>
</svg>
