<svg width="28" height="27" viewBox="0 0 28 27" fill="none" xmlns="http://www.w3.org/2000/svg">
<path d="M26.0108 0.000844067C25.9736 0.00168813 25.9382 0.0050644 25.9036 0.0101288L25.9086 0.00928473H18.3171C18.3129 0.00928473 18.3086 0.00928473 18.3036 0.00928473C17.771 0.00928473 17.3397 0.440603 17.3397 0.973209C17.3397 1.50581 17.771 1.93713 18.3036 1.93713C18.3086 1.93713 18.3129 1.93713 18.3179 1.93713H23.7022L17.6359 8.00344C17.462 8.17816 17.3549 8.41787 17.3549 8.68376C17.3549 9.21636 17.787 9.64768 18.3196 9.64768C18.5847 9.64768 18.8252 9.54048 18.9991 9.36745L25.0654 3.30114V8.68544C25.0654 8.68966 25.0654 8.69388 25.0654 8.69895C25.0654 9.23155 25.4967 9.66287 26.0293 9.66287C26.5619 9.66287 26.9932 9.23155 26.9932 8.69895C26.9932 8.69388 26.9932 8.68966 26.9932 8.6846V1.09138C26.9983 1.05339 27.0017 1.00866 27.0017 0.963924C27.0017 0.431318 26.5704 0 26.0378 0C26.0285 0 26.0183 0 26.0091 0.000844067H26.0108ZM0.950419 17.3489C0.423721 17.3574 0 17.7853 0 18.3129C0 18.3179 0 18.3222 0 18.3272V26.0386C0 26.0395 0 26.0403 0 26.0411C0 26.042 0 26.0428 0 26.0437C0 26.0715 0.00168813 26.0994 0.00422033 26.1264L0.00337627 26.1222C0.00422033 26.1298 0.00422033 26.134 0.00422033 26.1382V26.1348C0.00675253 26.1635 0.0109729 26.188 0.0151932 26.2125L0.0143491 26.2066C0.0168813 26.2218 0.0185695 26.2311 0.0202576 26.2395L0.0194135 26.2336C0.0396711 26.3273 0.0709016 26.4108 0.111417 26.4868L0.108885 26.4817C0.114793 26.4944 0.119013 26.5012 0.123234 26.5079L0.120701 26.5028C0.135051 26.5282 0.146868 26.5484 0.160373 26.5687L0.15784 26.5653C0.163749 26.5754 0.167969 26.5813 0.17219 26.5873L0.169657 26.5839C0.223678 26.6607 0.285294 26.7274 0.355352 26.7839L0.35704 26.7856C0.359572 26.7873 0.362105 26.7907 0.365481 26.7932L0.366325 26.794C0.523321 26.9181 0.722521 26.9949 0.939446 27C0.942822 27 0.947887 27 0.951263 27C0.954639 27 0.95886 27 0.96308 27H8.67447C8.67869 27 8.68291 27 8.68798 27C9.22058 27 9.6519 26.5687 9.6519 26.0361C9.6519 25.5035 9.22058 25.0722 8.68798 25.0722C8.68291 25.0722 8.67869 25.0722 8.67363 25.0722H3.29017L9.35563 19.0058C9.53542 18.8303 9.64684 18.5863 9.64684 18.3154C9.64684 17.7828 9.21552 17.3515 8.68291 17.3515C8.67363 17.3515 8.6635 17.3515 8.65421 17.3523H8.6559C8.39593 17.3599 8.16212 17.4696 7.99331 17.6427L1.927 23.7107V18.3255C1.927 18.3213 1.927 18.3171 1.927 18.3129C1.927 17.7803 1.49484 17.3489 0.96308 17.3489C0.958016 17.3489 0.952951 17.3489 0.947887 17.3489H0.950419Z" fill="#059DF2"/>
</svg>
