<svg width="20" height="20" viewBox="0 0 20 20" fill="none" xmlns="http://www.w3.org/2000/svg">
<path fill-rule="evenodd" clip-rule="evenodd" d="M13.6036 8C13.6036 11.3613 10.959 14 7.8018 14C4.64456 14 2 11.3613 2 8C2 4.6387 4.64456 2 7.8018 2C10.959 2 13.6036 4.6387 13.6036 8ZM12.8094 14.1349C11.4544 15.2991 9.70791 16 7.8018 16C3.49299 16 0 12.4183 0 8C0 3.58172 3.49299 0 7.8018 0C12.1106 0 15.6036 3.58172 15.6036 8C15.6036 9.73343 15.066 11.3381 14.1523 12.6482L19.9256 18.5682L18.5292 20L12.8094 14.1349Z" fill="white"/>
</svg>
