<svg xmlns="http://www.w3.org/2000/svg" xmlns:v="https://vecta.io/nano" width="320" height="81" fill-rule="evenodd" fill="#fff"><path d="M123.4 17.7l-.5.2-.52.17-.53.13-.54.1-2.3.2c-1.2 0-2.3-.2-3.4-.6-1-.4-1.8-1-2.5-1.8s-1.3-1.8-1.6-2.8c-.4-1.2-.6-2.4-.6-3.7s.2-2.5.6-3.8c.3-1 .9-2 1.6-2.8s1.6-1.4 2.5-1.8c1.1-.4 2.2-.7 3.4-.6.8 0 1.6.1 2.4.2.6.1 1.2.3 1.8.5 0 .3-.1.7-.2 1s-.2.7-.4 1l-.7-.2c-.2-.1-.5-.1-.7-.2-.3-.1-.6-.1-.9-.1h-1.1c-1.6-.1-3.1.6-4.1 1.8-1.1 1.5-1.6 3.3-1.5 5.1 0 1 .1 2 .4 3 .05.2.1.4.2.58.07.2.16.38.26.55l.34.5.4.46c.5.5 1.1.9 1.8 1.1.8.3 1.6.4 2.4.4.6 0 1.2-.1 1.8-.2.5 0 1-.1 1.5-.4.3.6.6 1.3.7 2zm7.5.9c-.9 0-1.7-.2-2.5-.5-.7-.3-1.3-.8-1.8-1.4s-.9-1.3-1.1-2c-.5-1.7-.5-3.4 0-5.1.2-.7.6-1.4 1.1-2s1.1-1.1 1.8-1.4c1.6-.7 3.4-.7 5.1 0 .7.3 1.3.8 1.8 1.4s.9 1.3 1.1 2c.5 1.7.5 3.4 0 5.1-.2.7-.6 1.4-1.1 2s-1.1 1.1-1.8 1.4c-.9.3-1.8.5-2.6.5zm0-1.9c1 .1 1.9-.4 2.5-1.2.6-1 .9-2.2.8-3.3.1-1.2-.2-2.3-.8-3.3-.6-.8-1.5-1.3-2.5-1.2-1-.1-1.9.4-2.4 1.2-.6 1-.8 2.2-.8 3.3-.1 1.2.2 2.3.8 3.3.4.8 1.4 1.2 2.4 1.2zm9.2-10.9h1l.5.1c0 .2.1.6.1 1 0 .3.1.7.1 1 .2-.3.3-.6.6-.8.2-.3.5-.5.8-.7s.6-.4 1-.5.8-.2 1.3-.2c.8 0 1.6.2 2.2.6.5.4 1 1 1.2 1.7.2-.3.4-.6.6-.8.2-.3.5-.5.8-.7s.6-.4 1-.5.8-.2 1.2-.2c1.2-.1 2.3.3 3.1 1.2.7 1 1.1 2.3 1 3.6v7.9c-.2 0-.4 0-.6.1h-1.2l-.6-.1v-7.2c.1-.9-.1-1.7-.5-2.5-.4-.6-1-.9-1.7-.8-.8 0-1.5.3-2 .9-.6.8-.8 1.7-.8 2.6v7l-.6.1h-1.2l-.6-.1v-7.4c.1-.8-.1-1.7-.5-2.4-.3-.5-.9-.9-1.5-.8-.4 0-.8.1-1.1.3l-.26.15c-.1.06-.17.12-.24.2-.08.07-.15.14-.22.22-.06.07-.12.16-.18.24l-.2.3-.16.32-.14.34c-.04.1-.07.22-.1.34l-.13.46a4.05 4.05 0 0 0-.09.48c-.03.16-.05.32-.06.48l-.02.48v6.3l-.6.1h-1.2l-.6-.1.1-12.6.5-.1zM160.7.5h1.2c.2 0 .4 0 .6.1v7.2a1.86 1.86 0 0 1 .11-.19.94.94 0 0 1 .12-.18c.04-.06.08-.1.13-.17l.14-.16c.2-.3.5-.5.8-.7s.7-.4 1.1-.5.9-.2 1.4-.2c1.2-.1 2.3.4 3.1 1.2.7 1 1.1 2.3 1 3.6v7.8l-.6.1h-1.2l-.6-.1v-7.2c.1-.9-.1-1.8-.6-2.5-.4-.5-1-.8-1.7-.8-.4 0-.9.1-1.3.2-.4.2-.8.4-1.1.7-.3.4-.6.8-.7 1.3l-.13.46a4.05 4.05 0 0 0-.09.48c-.03.16-.05.32-.06.48l-.02.48v6.3l-.6.1h-1.2l-.6-.1.2-17.6c.2 0 .4-.1.6-.1zm19.1 7.6c-.6-.4-1.4-.6-2.1-.6-.5 0-1.1 0-1.6.1l-1.4.3c-.3-.6-.5-1.2-.5-1.9.6-.2 1.2-.3 1.8-.4s1.3-.1 1.9-.2c1.3-.1 2.6.3 3.7 1.1.9.9 1.4 2.2 1.2 3.5v8c-.6.1-1.2.3-2.1.4l-2.5.2c-.7 0-1.4-.1-2.1-.2-.6-.1-1.1-.4-1.6-.7-.4-.3-.8-.7-1-1.2-.3-.6-.4-1.2-.4-1.8 0-1.2.5-2.4 1.6-3.1.5-.4 1.1-.6 1.7-.8.7-.2 1.3-.3 2-.2h1.3c.4 0 .6 0 .8.1v-.6c.1-.7-.2-1.5-.7-2zm-.2 4.3h-.9c-.8-.1-1.6.1-2.3.5-.5.4-.8 1-.8 1.7 0 .4.1.8.3 1.1s.4.5.7.6c.3.2.6.2.9.3h.9c.3 0 .8 0 1.1-.1.3 0 .7-.1 1-.2v-3.8l-.9-.1zm5.8-4.6c0-.1-.1-.3-.1-.4v-1c0-.2 0-.3.1-.5h3.9v12.4l-.6.1h-1.2l-.6-.1V7.8h-1.5zm1.1-4.6c0-.2-.1-.4-.1-.6V1.4c0-.2 0-.4.1-.6l.7-.1h1.2l.6.1c0 .2.1.4.1.6v1.2c0 .2 0 .4-.1.6l-.6.1h-1.2l-.7-.1zm7.1 2.6h1l.5.1c.1.2.1.6.1 1s.1.7.1 1c.3-.6.8-1 1.3-1.4.6-.4 1.4-.6 2.1-.6h.8c0 .1 0 .3.1.5v1.1c0 .2 0 .4-.1.6h-.7c-.4 0-.8.1-1.2.2s-.8.3-1.1.6c-.4.4-.6.8-.8 1.3l-.13.5-.1.5-.06.5-.02.5v6.2l-.6.1h-1.2l-.6-.1.1-12.5.5-.1zm8.9-5.3h1.2c.2 0 .4 0 .6.1v13.9c0 .4 0 .7.1 1.1l.3.6c.1.1.3.2.5.3.2 0 .4.1.6.1h.5c.2 0 .3 0 .5-.1.1.6.2 1.2.2 1.8-.3.1-.5.1-.8.2h-.9c-.4 0-.9-.1-1.3-.2s-.8-.3-1.1-.6-.6-.6-.7-1l-.13-.4c-.04-.13-.07-.26-.1-.4a2.76 2.76 0 0 1-.06-.4l-.02-.4V.6c.2 0 .4-.1.6-.1zm8.3 12.2c-.1 1.1.3 2.2 1.1 3 .8.7 1.9 1 2.9.9l.84-.04.84-.1.82-.2.8-.26.3.9c.1.3.1.7.1 1-.6.2-1.1.4-1.8.5l-2.1.2c-1 0-2-.1-2.9-.5-1.5-.6-2.7-1.8-3.1-3.4-.3-.8-.4-1.7-.4-2.6s.1-1.7.4-2.6c.2-.8.6-1.5 1.1-2.1s1.1-1.1 1.8-1.4c.8-.4 1.7-.5 2.6-.5.8 0 1.5.1 2.2.4.6.3 1.2.7 1.6 1.2.5.5.8 1.1 1 1.8s.3 1.5.3 2.3v1.3h-8.4v.2zm5.9-3.1c-.1-.4-.3-.8-.5-1.1s-.5-.6-.9-.7c-.4-.2-.8-.3-1.3-.3-.8-.1-1.7.3-2.3.9-.6.7-.9 1.6-.9 2.5h6.1c0-.4-.1-.9-.2-1.3zm23.2 8.1l-.5.2-.52.17-.53.13-.54.1-2.3.2c-1.2 0-2.3-.2-3.4-.6-1-.4-1.8-1-2.5-1.8s-1.2-1.8-1.6-2.8c-.4-1.2-.6-2.4-.6-3.7s.2-2.5.6-3.7c.3-1 .9-2 1.6-2.8s1.6-1.4 2.5-1.8c1.1-.4 2.2-.7 3.4-.6.8 0 1.6.1 2.4.2.6.1 1.2.3 1.8.5 0 .3-.1.7-.2 1s-.2.7-.4 1l-.7-.2c-.2-.1-.5-.1-.7-.2-.3-.1-.6-.1-.9-.1h-1.1c-1.6-.1-3.1.6-4.1 1.8-1.1 1.5-1.6 3.3-1.5 5.1 0 1 .1 2 .4 3 .05.2.1.4.2.58.07.2.16.38.26.55l.34.5.4.46c.5.5 1.1 1 1.8 1.2.7.3 1.5.4 2.4.4.6 0 1.2-.1 1.8-.2.5-.1 1-.3 1.5-.6.3.6.6 1.3.7 2zm8.4-9.6c-.6-.4-1.4-.6-2.1-.6-.5 0-1.1 0-1.6.1l-1.4.3c-.3-.6-.5-1.2-.5-1.9.6-.2 1.2-.3 1.8-.4s1.3-.1 1.9-.2c1.3-.1 2.6.3 3.7 1.1.9.9 1.4 2.2 1.2 3.5v8l-2 .4-2.5.2c-.7 0-1.4-.1-2.1-.2-.6-.1-1.1-.4-1.6-.7-.4-.3-.8-.7-1-1.2-.3-.6-.4-1.2-.4-1.8 0-.3.04-.6.1-.9.07-.3.18-.57.32-.84s.3-.52.5-.75a3.89 3.89 0 0 1 .67-.61c.5-.4 1.1-.6 1.7-.8.7-.2 1.3-.3 2-.2h1.3c.4 0 .6 0 .8.1l-.1-.6c.1-.7-.2-1.5-.7-2zm.7 4.4l-.9-.1h-.9c-.8 0-1.6.1-2.3.5-.5.4-.8 1-.8 1.7 0 .4.1.8.3 1.1s.4.5.7.6c.3.2.6.2.9.3h.9c.4 0 .8 0 1.1-.1.4 0 .7-.1 1-.2v-3.8zm4.4-4.7l-.1-.3 4.1-4.6h.2V6h3.1c.1.3.1.6.1.9v.5c0 .2 0 .3-.1.5h-3.1v5.6c0 .5 0 1.1.1 1.6 0 .3.1.6.3.9.1.2.3.4.5.4.3.1.6.1.9.1s.5 0 .8-.1l.6-.1c.1.3.2.7.2 1v.9c-.3.1-.7.1-1 .2-.4 0-.8.1-1.1.1-1 .1-1.9-.2-2.7-.8-.18-.18-.33-.4-.47-.6a3.64 3.64 0 0 1-.33-.69 3.16 3.16 0 0 1-.18-.75c-.03-.25-.04-.5-.02-.76l.1-7.1h-1.9zM263.9.5h1.2c.2 0 .4 0 .6.1v7.2a1.86 1.86 0 0 1 .11-.19.94.94 0 0 1 .12-.18c.04-.06.08-.1.13-.17l.14-.16c.5-.6 1.2-1 1.9-1.2.4-.1.9-.2 1.4-.2 1.2-.1 2.3.4 3.1 1.2.7 1 1.1 2.3 1 3.6v7.8l-.6.1h-1.2l-.6-.1v-7.2c.1-.9-.1-1.8-.6-2.5-.4-.5-1-.8-1.7-.8-.4 0-.9.1-1.3.2-.4.2-.8.4-1.1.7-.3.4-.5.8-.7 1.3l-.13.46a4.05 4.05 0 0 0-.09.48c-.03.16-.05.32-.06.48l-.02.48v6.3c-.2 0-.4 0-.6.1h-.9l-.6-.1-.1-17.6c.2 0 .4-.1.6-.1zm13.7 5.3h1l.5.1c0 .2.1.6.1 1 0 .3.1.7.1 1 .4-.6.8-1 1.3-1.4.6-.4 1.4-.6 2.1-.6h.8c0 .2.1.3.1.5v1.1c0 .2 0 .4-.1.6h-.7c-.4 0-.8.1-1.2.2s-.8.3-1.1.6c-.3.4-.6.8-.8 1.3l-.13.5-.1.5-.06.5-.02.5v6.2l-.6.1h-1.2l-.6-.1.1-12.5.5-.1zm14 2.3c-.6-.4-1.4-.6-2.1-.6-.5 0-1.1 0-1.6.1l-1.4.3c-.3-.6-.5-1.2-.5-1.9.6-.2 1.2-.3 1.8-.4s1.3-.1 1.9-.2c1.3-.1 2.6.3 3.7 1.1.23.23.43.48.6.75s.32.56.43.86.2.6.24.93a5.14 5.14 0 0 1 .03.96v8l-2 .4-2.5.2c-.7 0-1.4-.1-2.1-.2-.6-.1-1.1-.4-1.6-.7-.4-.3-.8-.7-1-1.2-.3-.6-.4-1.2-.4-1.8s.1-1.3.4-1.8.7-1 1.1-1.3c.5-.4 1.1-.6 1.7-.8.7-.2 1.3-.3 2-.2h1.3c.4 0 .6 0 .8.1l-.1-.6c.1-.7-.2-1.5-.7-2zm.7 4.4l-.9-.1h-.9c-.8-.1-1.6.1-2.3.5-.5.4-.8 1-.8 1.7 0 .4.1.8.3 1.1s.4.5.7.6c.3.2.6.2.9.3h.9c.3 0 .8 0 1.1-.1.4 0 .7-.1 1-.2v-3.8zm14.4 4.4c.1.3.1.7.2 1-1 .4-2.1.6-3.2.6-1.7.1-3.4-.5-4.6-1.7-1.1-1.3-1.7-3-1.6-4.7 0-.9.1-1.7.4-2.6.2-.7.6-1.4 1.1-2s1.2-1.1 1.9-1.4c.8-.4 1.7-.5 2.6-.5.6 0 1.2 0 1.8.1.5.1 1 .2 1.5.4 0 .3 0 .7-.1 1l-.3 1c-.9-.3-1.8-.4-2.7-.4-1.1-.1-2.1.4-2.8 1.2-.7 1-1 2.1-.9 3.2-.1 1.2.2 2.4 1 3.4.8.7 1.8 1.1 2.9 1.1.4 0 .9 0 1.3-.1.4 0 .8-.2 1.2-.4.1.3.3.5.3.8z"/><path d="M310.1.5h1.2c.2 0 .4 0 .6.1v7.2c.05-.05.1-.1.14-.16l.13-.17a.94.94 0 0 0 .12-.18 1.86 1.86 0 0 0 .11-.19c.2-.3.5-.5.8-.7s.7-.4 1.1-.5.9-.2 1.4-.2c1.2-.1 2.3.4 3.1 1.2.7 1 1.1 2.3 1 3.6v7.8l-.6.1H318l-.6-.1v-7.2c.1-.9-.1-1.8-.6-2.5-.4-.5-1-.8-1.7-.8-.4 0-.9.1-1.3.2-.4.2-.8.4-1.1.7-.3.4-.6.8-.7 1.3l-.13.46a4.05 4.05 0 0 0-.09.48c-.03.16-.05.32-.06.48l-.02.48v6.3c-.2 0-.4 0-.6.1h-1.2l-.6-.1.2-17.6c.2 0 .4-.1.6-.1zM111.6 28.8c.6-.1 1.1-.2 1.7-.2l2.2-.1c.8 0 1.7.1 2.5.2.7.1 1.3.4 1.9.8.5.4 1 .8 1.2 1.4.3.6.5 1.4.4 2.1 0 .5-.1.9-.2 1.4-.1.4-.4.8-.6 1.1-.5.6-1.2 1.1-1.9 1.3.5.1.9.2 1.4.4s.9.5 1.2.8c.4.4.7.8.9 1.3.2.6.4 1.3.3 2 0 .8-.2 1.6-.6 2.4-.4.6-.9 1.2-1.5 1.6-.7.4-1.4.7-2.2.9l-.7.13-.7.1-.7.05c-.24.02-.47.02-.7.02-.6 0-1.3 0-2-.1l-2.1-.2V28.8h.2zm6.7 6.6c.6-.5.9-1.3.9-2.1s-.3-1.5-.9-2c-.7-.5-1.6-.7-2.5-.7h-.9c-.3 0-.6 0-.8.1v5.5l1.7-.1c.9.1 1.8-.2 2.5-.7zm-3.3 9h1c.5 0 1.1 0 1.6-.2.5-.1.9-.2 1.3-.5.4-.2.7-.6.9-.9.2-.5.3-1 .3-1.5s-.1-1-.3-1.5c-.2-.4-.5-.7-.9-1s-.8-.4-1.3-.5-1.1-.2-1.6-.2h-2l.1 6.2c.3 0 .6.1.9.1zm11.3-16h1.2c.2 0 .4 0 .6.1v7.2c.2-.2.3-.5.5-.7.2-.3.5-.5.8-.7s.7-.4 1.1-.5.9-.2 1.4-.2c1.2-.1 2.3.4 3.1 1.2.7 1 1.1 2.3 1 3.6v7.8l-.6.1h-1.2l-.6-.1V39c.1-.9-.1-1.8-.6-2.5-.4-.5-1-.8-1.7-.8-.4 0-.9.1-1.3.2-.4.2-.8.4-1.1.7-.3.4-.6.8-.7 1.3l-.13.46a4.05 4.05 0 0 0-.09.48c-.03.16-.05.32-.06.48l-.02.48v6.3l-.6.1h-1.2l-.6-.1.2-17.6c.2 0 .4-.1.6-.1zm19.1 7.6c-.6-.4-1.4-.6-2.1-.6-.5 0-1.1 0-1.6.1l-1.4.3c-.3-.6-.5-1.2-.5-1.9.6-.2 1.2-.3 1.8-.4s1.3-.1 1.9-.2c1.3-.1 2.6.3 3.7 1.1.9.9 1.4 2.2 1.2 3.5v7.7c-.6.1-1.2.3-2.1.4l-2.5.2c-.7 0-1.4-.1-2.1-.2-.6-.1-1.1-.4-1.6-.7-.4-.3-.8-.7-1-1.2-.3-.6-.4-1.2-.4-1.8s.1-1.3.4-1.8.7-1 1.1-1.3c.5-.4 1.1-.6 1.7-.8.7-.2 1.3-.3 2-.2h1.3c.4 0 .6 0 .8.1l.1-.3c.1-.7-.2-1.5-.7-2zm-.2 4.2h-.9c-.8-.1-1.6.1-2.3.6-.5.4-.8 1-.8 1.7 0 .4.1.8.3 1.1s.4.5.7.6c.3.2.6.2.9.3.3 0 .6.1.9.1.4 0 .8 0 1.1-.1.3 0 .7-.1 1-.2v-4l-.9-.1zm5.9-4.5c0-.1-.1-.3-.1-.4v-1c0-.2 0-.3.1-.4h3.9v12.4l-.6.1h-1.2l-.6-.1.1-10.6h-1.6zm1.1-4.6c0-.2-.1-.4-.1-.6v-1.2c0-.2 0-.4.1-.6.2 0 .4-.1.7-.1h1.2c.2 0 .4 0 .6.1 0 .2.1.4.1.6v1.2c0 .2 0 .4-.1.6l-.6.1h-1.2l-.7-.1zm7.2-2.7h1.2c.2 0 .4 0 .6.1v13.9c0 .4 0 .7.1 1.1l.3.6c.1.1.3.2.5.3h1.1c.2 0 .3 0 .5-.1.1.6.2 1.2.2 1.8-.3.1-.5.1-.8.2h-.9c-.4 0-.9 0-1.3-.2-.4-.1-.8-.3-1.1-.6s-.6-.6-.7-1l-.13-.4c-.04-.13-.07-.26-.1-.4a2.76 2.76 0 0 1-.06-.4l-.02-.4V28.5c.2 0 .4-.1.6-.1zm9.3 15.2c.8.7 1.9 1 3 .9l.84-.04.84-.1.82-.2.8-.26.3.9c.1.3.1.7.1 1-.6.2-1.1.4-1.8.5l-2.1.2c-1 0-2-.1-2.9-.5-.8-.3-1.4-.7-2-1.3-.5-.6-.9-1.3-1.1-2-.2-.8-.4-1.7-.4-2.6s.1-1.7.4-2.6c.2-.8.6-1.5 1.1-2.1s1.1-1.1 1.8-1.4c.8-.4 1.7-.5 2.6-.5.8 0 1.5.1 2.2.4.6.3 1.2.7 1.6 1.2.5.5.8 1.1 1 1.8s.3 1.5.3 2.3v.7c0 .2 0 .5-.1.6l-8.3.1c-.1 1.1.3 2.2 1 3zm5-6.1c-.1-.4-.3-.8-.5-1.1s-.5-.6-.9-.7c-.4-.2-.8-.3-1.3-.3-.8-.1-1.7.3-2.2.9-.6.7-.9 1.6-1 2.5h6.1c0-.4-.1-.9-.2-1.3zm13.4 4.7l-1.2 4-.6.1H184l-.6-.1 5.6-17.3.7-.1h1.5l.7.1 5.6 17.3-.6.1h-1.3l-.6-.1-1.3-4h-6.6zM193 40l-2.7-8.9-2.6 8.9h5.3zm-2.7-12.5H189l-.6-.1 2.6-2.6.8-.1h1.8l.8.1-3.4 2.6-.7.1zm8 8.2l-.1-.3 4.1-4.6h.2v3.1h3.1c.1.3.1.6.1.9v.5c0 .2 0 .3-.1.5h-3.1v5.6c0 .5 0 1.1.1 1.6 0 .3.1.6.3.9.1.2.3.4.6.4.3.1.6.1.9.1s.5 0 .8-.1l.6-.1c.1.3.2.7.2 1v.9c-.3.1-.7.1-1 .2-.4 0-.8.1-1.1.1-1 .1-1.9-.2-2.7-.8-.18-.18-.33-.4-.47-.6a3.64 3.64 0 0 1-.33-.69 3.16 3.16 0 0 1-.18-.75c-.03-.25-.04-.5-.02-.76v-7.1h-1.9zm10.6-7.3h1.2c.2 0 .4 0 .6.1v7.2c.2-.2.4-.5.6-.7.2-.3.5-.5.8-.7s.7-.4 1.1-.5.9-.2 1.4-.2c1.2-.1 2.3.4 3.1 1.2.7 1 1.1 2.3 1 3.6v7.8l-.6.1h-1.2l-.6-.1V39c.1-.9-.1-1.8-.6-2.5-.4-.5-1-.8-1.7-.8-.4 0-.9.1-1.3.2-.4.2-.8.4-1.1.7-.3.4-.6.8-.7 1.3l-.13.46a4.05 4.05 0 0 0-.09.48c-.03.16-.05.32-.06.48l-.02.48v6.3c-.2 0-.4 0-.6.1h-1.2l-.6-.1.1-17.6c.2 0 .4-.1.6-.1zM228 36c-.6-.4-1.4-.6-2.1-.6-.5 0-1.1 0-1.6.1l-1.4.3c-.3-.6-.5-1.2-.5-1.9.6-.2 1.2-.3 1.8-.4s1.3-.1 1.9-.2c1.3-.1 2.6.3 3.7 1.1.23.23.43.48.6.75s.32.56.43.86.2.6.24.93a5.14 5.14 0 0 1 .03.96v7.7c-.6.1-1.2.3-2.1.4l-2.5.2c-.7 0-1.4-.1-2.1-.2-.6-.1-1.1-.4-1.6-.7-.4-.3-.8-.7-1-1.2-.3-.6-.4-1.2-.4-1.8 0-.3.04-.6.1-.9.07-.3.18-.57.32-.84s.3-.52.5-.75a3.89 3.89 0 0 1 .67-.61c.5-.4 1.1-.6 1.7-.8.7-.2 1.3-.3 2-.2h1.3c.4 0 .6 0 .8.1l-.1-.3c.1-.7-.2-1.5-.7-2zm-.2 4.2h-.9c-.8-.1-1.6.1-2.3.6-.5.4-.8 1-.8 1.7 0 .4.1.8.3 1.1s.4.5.7.6c.3.2.6.2.9.3.3 0 .6.1.9.1s.8 0 1.1-.1c.3 0 .7-.1 1-.2v-4l-.9-.1zm24.4 5.4l-.5.2-.52.17-.53.13-.54.1-2.3.2c-1.2 0-2.3-.2-3.4-.6-1-.4-1.8-1-2.5-1.8s-1.3-1.8-1.6-2.8c-.4-1.2-.6-2.4-.6-3.7s.2-2.5.6-3.8c.3-1 .9-2 1.6-2.8s1.6-1.4 2.5-1.8c1.1-.4 2.2-.7 3.4-.6.8 0 1.6.1 2.4.2.6.1 1.2.3 1.8.5 0 .3-.1.7-.2 1s-.2.7-.4 1l-.7-.2c-.2-.1-.5-.1-.7-.2-.3-.1-.6-.1-.9-.1H248c-1.6-.1-3.1.6-4.1 1.8-1.1 1.5-1.6 3.3-1.5 5.1 0 1 .1 2 .4 3 .2.8.7 1.4 1.2 2 .5.5 1.1 1 1.8 1.2.7.3 1.5.4 2.4.4.6 0 1.2 0 1.8-.2.5 0 1-.1 1.5-.4.3.6.6 1.3.7 2zm3.4-17.2h1.2c.2 0 .4 0 .6.1v13.9c0 .4 0 .7.1 1.1l.3.6c.1.1.3.2.5.3h1.1c.2 0 .3 0 .5-.1.2.6.2 1.2.2 1.8-.3.1-.5.1-.8.2h-.9c-.4 0-.9 0-1.3-.2-.4-.1-.8-.3-1.1-.6s-.6-.6-.7-1c-.2-.5-.3-1-.3-1.6V28.5c.2 0 .4-.1.6-.1zm5.7 7.3c0-.1-.1-.3-.1-.4v-1c0-.2 0-.3.1-.4h3.9v12.4l-.6.1h-1.2l-.6-.1V35.7h-1.5zm1.1-4.6c0-.2-.1-.4-.1-.6v-1.2c0-.2 0-.4.1-.6.2 0 .5-.1.7-.1h1.2c.2 0 .4 0 .6.1 0 .2.1.4.1.6v1.2c0 .2 0 .4-.1.6l-.6.1h-1.2l-.7-.1zm12.5 4.9c-.6-.4-1.4-.6-2.1-.6-.5 0-1.1 0-1.6.1l-1.4.3c-.3-.6-.5-1.2-.5-1.9.6-.2 1.2-.3 1.8-.4s1.3-.1 1.9-.2c1.3-.1 2.6.3 3.7 1.1.9.9 1.4 2.2 1.2 3.5v7.7l-2 .4-2.5.2c-.7 0-1.4-.1-2.1-.2-.6-.1-1.1-.4-1.6-.7-.4-.3-.8-.7-1-1.2-.3-.6-.4-1.2-.4-1.8 0-.3.04-.6.1-.9.07-.3.18-.57.32-.84s.3-.52.5-.75a3.89 3.89 0 0 1 .67-.61c.5-.4 1.1-.6 1.7-.8.7-.2 1.3-.3 2-.2h1.3c.4 0 .6 0 .8.1l-.1-.3c.1-.7-.2-1.5-.7-2zm-.2 4.2h-.9c-.8 0-1.6.1-2.3.6-.5.4-.8 1-.8 1.7 0 .4.1.8.3 1.1s.4.5.7.6c.3.2.6.2.9.3.3 0 .6.1.9.1.4 0 .8 0 1.1-.1.4 0 .7-.1 1-.2v-4l-.9-.1zm5.3-4.5l-.1-.3 4.1-4.6h.2v3.1h3.1c.1.3.1.6.1.9v.5c0 .2 0 .3-.1.5h-3.1v5.6c0 .5 0 1.1.1 1.6 0 .3.1.6.3.9.1.2.3.4.5.4.3.1.6.1.9.1s.5 0 .8-.1l.7-.1c.1.3.2.7.2 1v.9c-.3.1-.7.1-1 .2-.4 0-.8.1-1.1.1-1 .1-1.9-.2-2.7-.8-.18-.18-.33-.4-.47-.6a3.64 3.64 0 0 1-.33-.69 3.16 3.16 0 0 1-.18-.75c-.03-.25-.04-.5-.02-.76v-7.1H280z"/><path d="M290.6 28.4h1.2c.2 0 .4 0 .6.1v7.2c.2-.3.3-.5.5-.7.2-.3.5-.5.8-.7s.7-.4 1.1-.5.9-.2 1.4-.2c1.2-.1 2.3.4 3.1 1.2.7 1 1.1 2.3 1 3.6v7.8l-.6.1h-1.2l-.6-.1V39c.1-.9-.1-1.8-.6-2.5-.4-.5-1.1-.9-1.7-.8-.1 0-.2.01-.3.02l-.3.04c-.1.01-.2.03-.3.06a4.32 4.32 0 0 0-.29.08c-.4.2-.8.4-1.1.7-.3.4-.6.8-.7 1.3l-.13.46a4.05 4.05 0 0 0-.09.48c-.03.16-.05.32-.06.48l-.02.48v6.3l-.6.1h-1.2l-.6-.1.1-17.6c.2 0 .4-.1.6-.1zM113.8 56.8c.8-.1 1.5-.1 2.3-.1 3 0 5.3.8 6.8 2.3s2.3 3.8 2.3 6.7-.8 5.3-2.3 6.7-3.8 2.2-6.9 2.2c-.8 0-1.5 0-2.2-.1l-1.9-.2-.1-17.3c.5-.1 1.2-.1 2-.2zm1.3 15.6h1.1c.9 0 1.7-.1 2.6-.3.7-.2 1.4-.6 2-1.1.6-.6 1.1-1.3 1.3-2.1.3-1.1.5-2.2.4-3.3 0-1-.1-2.1-.4-3.1-.3-.8-.7-1.5-1.3-2.1-.6-.5-1.2-.9-2-1.2-.8-.2-1.7-.4-2.6-.4h-1c-.3 0-.7 0-1 .1l.1 13.4c.2 0 .5.1.8.1zm13.8-10.5h1.2c.2 0 .4 0 .6.1v6.8c0 .6.1 1.3.2 1.9.1.4.3.9.6 1.2s.7.5 1.1.6c.5.1 1 .2 1.4.2.7 0 1.4-.1 2.1-.3V62c.2 0 .4-.1.6-.1h1.2c.2 0 .4 0 .6.1v12c-.6.2-1.2.3-2 .4-.8.2-1.6.2-2.4.2-.7 0-1.5-.1-2.2-.2s-1.3-.4-1.9-.8c-.6-.5-1-1.1-1.2-1.8-.3-1-.5-2-.5-3V62c.2 0 .4-.1.6-.1zm14-5.3h1.2l.6.1v6.8c.3-.5.8-1 1.4-1.2.7-.4 1.4-.6 2.2-.5.7 0 1.4.1 2 .4.6.2 1.2.6 1.6 1.1.12.14.23.28.33.43a4.39 4.39 0 0 1 .27.47c.1.16.16.32.23.5.07.16.12.34.17.5.3.9.4 1.8.4 2.8.1 1.8-.5 3.7-1.8 5-1.4 1.3-3.3 1.9-5.2 1.8-.7 0-1.5-.1-2.2-.2-.6-.1-1.3-.3-1.9-.5l.1-17.4.6-.1zm2.7 15.9c.3 0 .7.1 1 .1.6 0 1.1-.1 1.6-.3s.9-.5 1.3-.8c.4-.4.7-.9.9-1.4.2-.7.3-1.4.3-2.1.1-1.1-.2-2.2-.7-3.1-.5-.8-1.4-1.2-2.3-1.1-.4 0-.7.1-1.1.2-.8.3-1.4.9-1.7 1.6l-.13.4c-.04.13-.07.26-.1.4a2.76 2.76 0 0 0-.06.4l-.02.4.1 5.1c.3.1.6.2.9.2zm11.5-15.9h1.2l.6.1v13.9c0 .4 0 .7.1 1.1l.3.6c.1.1.3.2.5.3.2 0 .4.1.6.1h.5c.2 0 .3 0 .5-.1.2.6.2 1.2.2 1.8-.3.1-.5.1-.8.2h-.9c-.4 0-.9-.1-1.3-.2-.8-.2-1.5-.8-1.8-1.6l-.13-.4c-.04-.13-.07-.26-.1-.4a2.76 2.76 0 0 1-.06-.4l-.02-.4V56.7l.6-.1zm5.8 7.2c0-.1-.1-.3-.1-.4v-1c0-.2 0-.3.1-.4h3.9v12.4c-.2 0-.4.1-.6.1H165c-.2 0-.4 0-.6-.1V63.8h-1.5zm1-4.6c0-.2-.1-.4-.1-.6v-1.2c0-.2 0-.4.1-.6.2 0 .5-.1.7-.1h1.2c.2 0 .4 0 .6.1 0 .2.1.4.1.6v1.2c0 .2 0 .4-.1.6-.2 0-.4.1-.6.1h-1.2c-.2 0-.4 0-.7-.1zm7.3 2.7h1.13c.04 0 .08.01.13.01.04.01.08.02.12.04a.61.61 0 0 1 .12.05c.1.2.1.6.1 1 0 .3.1.7.1 1 .2-.3.4-.6.6-.8.3-.3.5-.5.9-.7.3-.2.7-.4 1.1-.5s.9-.2 1.4-.2c1.2-.1 2.3.3 3.1 1.2.7 1 1.1 2.3 1 3.6v7.8c-.2 0-.4.1-.6.1h-1.2c-.2 0-.4 0-.6-.1v-7.2c.1-.9-.1-1.7-.5-2.5-.4-.5-1-.8-1.7-.8-.4 0-.9.1-1.3.2-.4.2-.8.4-1.1.7-.3.4-.6.8-.7 1.3l-.13.46a4.05 4.05 0 0 0-.09.48c-.03.16-.05.32-.06.48L173 68v6.3c-.2 0-.4.1-.6.1h-1.2c-.2 0-.4 0-.6-.1l.1-12.3c.2 0 .3-.1.5-.1zm31.1 11.9l-.5.2-.52.17-.53.13-.54.1-2.3.2c-1.2 0-2.3-.2-3.4-.6-1-.4-1.8-1-2.5-1.8s-1.3-1.8-1.6-2.8c-.4-1.2-.6-2.4-.6-3.7s.2-2.6.6-3.8c.3-1.1.9-2 1.6-2.9.7-.8 1.6-1.4 2.5-1.8 1.1-.4 2.2-.7 3.4-.6.8 0 1.6.1 2.4.2.6.1 1.2.3 1.8.5 0 .3-.1.7-.2 1s-.2.6-.4 1l-.7-.2c-.2-.1-.5-.1-.7-.2s-.5-.1-.9-.1h-1.1c-1.6-.1-3.1.6-4.1 1.8-1.1 1.5-1.6 3.3-1.5 5.1 0 1 .1 2 .4 3 .2.8.6 1.5 1.1 2.1.5.5 1.1 1 1.8 1.2.8.3 1.5.4 2.4.4.6 0 1.2-.1 1.8-.2.6 0 1.1-.2 1.6-.4.3.6.6 1.3.7 2zm2.1-10c0-.1-.1-.3-.1-.4v-1c0-.2 0-.3.1-.4h3.9v12.4c-.2 0-.4.1-.6.1h-1.2c-.2 0-.4 0-.6-.1V63.8h-1.5zm1-5.2v-1.2c0-.2 0-.4.1-.6.2 0 .5-.1.7-.1h1.2c.2 0 .4 0 .7.1 0 .2.1.4.1.6v1.2c0 .2 0 .4-.1.6-.2 0-.4.1-.6.1h-1.2c-.4 0-.6 0-.8-.1 0-.2-.1-.4-.1-.6zm5.4 5.3l-.1-.3 4.1-4.6h.2v3h3.1c.1.3.1.6.1.9v.5c0 .2 0 .3-.1.5H215v5.7c0 .5 0 1.1.1 1.6 0 .3.1.6.3.9.1.2.3.4.6.4.3.1.6.1.9.1s.5 0 .8-.1c.2 0 .5-.1.6-.1.1.3.2.7.2 1v.9c-.3.1-.7.1-1 .2h-1.1c-1 .1-1.9-.2-2.7-.8-.18-.18-.33-.4-.47-.6a3.64 3.64 0 0 1-.33-.69 3.16 3.16 0 0 1-.18-.75c-.03-.25-.04-.5-.02-.76v-7h-1.9zm12.6 10.5L219.2 62c.2 0 .4 0 .6-.1h1.3c.2 0 .4 0 .6.1l3.4 11.5 3.5-11.5c.4-.1.8-.1 1.2-.1h.6c.2 0 .5 0 .7.1l-4.8 14.9-.15.43c-.05.15-.1.3-.17.43l-.18.43-.2.4c-.05.1-.1.2-.17.3l-.2.28c-.06.1-.14.18-.2.27s-.15.17-.23.25c-.3.3-.6.5-1 .6s-.9.2-1.3.2-.7 0-1.1-.1c-.3 0-.6-.1-.9-.2 0-.6.1-1.3.4-1.9l.6.2c.3.1.5.1.8.1.2 0 .4 0 .6-.1.2 0 .4-.1.5-.2.2-.1.3-.3.5-.5.2-.3.3-.6.4-.9l.8-2.5h-1.7zm27.9-.6l-.5.2-.52.17-.53.13-.54.1-2.3.2c-1.2 0-2.3-.2-3.4-.6-1-.4-1.8-1-2.5-1.8s-1.3-1.8-1.6-2.8c-.4-1.2-.6-2.4-.6-3.7s.2-2.5.6-3.8c.3-1.1.9-2 1.6-2.9.7-.8 1.6-1.4 2.5-1.8 1.1-.4 2.2-.7 3.4-.6.8 0 1.6.1 2.4.2.6.1 1.2.3 1.8.5 0 .3-.1.7-.2 1s-.2.6-.4 1l-.7-.2-.8-.1c-.3 0-.5-.1-.9-.1H247c-1.6-.1-3.1.6-4.1 1.8-1.1 1.5-1.6 3.3-1.5 5.1 0 1 .1 2 .4 3 .05.2.1.4.2.58.07.2.16.38.26.55l.34.5.4.46c.5.5 1.1 1 1.8 1.2.8.3 1.6.4 2.4.4.6 0 1.2-.1 1.8-.2s1.1-.3 1.6-.5c.3.6.6 1.3.7 2zm7.6.8c-.9 0-1.7-.1-2.5-.5-.7-.3-1.3-.8-1.8-1.4s-.9-1.3-1.1-2c-.5-1.7-.5-3.4 0-5.1.2-.7.6-1.4 1.1-2s1.1-1.1 1.8-1.4c1.6-.7 3.4-.7 5.1 0 .7.3 1.3.8 1.8 1.4s.9 1.3 1.1 2c.5 1.7.5 3.4 0 5.1-.2.7-.6 1.4-1.1 2s-1.1 1.1-1.8 1.4c-.9.4-1.8.6-2.6.5zm0-1.9c1 .1 1.9-.4 2.5-1.2 1.1-2.1 1.1-4.6 0-6.7-.5-.8-1.5-1.3-2.5-1.2-1-.1-1.9.4-2.5 1.2-.25.52-.43 1.07-.56 1.63-.13.57-.2 1.14-.2 1.72s.06 1.15.2 1.72c.13.56.3 1.1.56 1.63.6.8 1.5 1.3 2.5 1.2zm9.3-10.8h1.2c.2 0 .4 0 .6.1v6.8c0 .6.1 1.3.2 1.9.1.4.3.9.6 1.2s.7.5 1.1.6c.5.1 1 .2 1.5.2.7 0 1.4-.1 2.1-.3V62c.2 0 .4-.1.6-.1h1.2c.2 0 .4 0 .6.1v12c-.6.2-1.2.3-2 .4l-2.4.2c-.8 0-1.5-.1-2.2-.2s-1.3-.4-1.8-.8c-.6-.5-1-1.1-1.3-1.8-.3-1-.5-2-.5-3l-.1-6.8c.2 0 .4-.1.6-.1zm13.9 0h1.13c.04 0 .08.01.13.01.04.01.08.02.12.04a.61.61 0 0 1 .12.05c0 .2.1.6.1 1 0 .3.1.7.1 1 .2-.3.4-.6.6-.8.3-.3.5-.5.9-.7.3-.2.7-.4 1.1-.5s.9-.2 1.4-.2c1.2-.1 2.4.3 3.2 1.2.7 1 1.1 2.3 1 3.6v7.8c-.2 0-.4.1-.6.1h-1.2c-.2 0-.4 0-.6-.1v-7.2c.1-.9-.1-1.7-.5-2.5-.4-.5-1-.8-1.7-.8-.4 0-.9.1-1.3.2-.4.2-.8.4-1.1.7-.3.4-.6.8-.7 1.3l-.13.46a4.05 4.05 0 0 0-.09.48c-.03.16-.05.32-.06.48L284 68v6.3c-.2 0-.4.1-.6.1h-1.2c-.2 0-.4 0-.6-.1V62c.2 0 .3-.1.5-.1zm22 11.1c.1.3.2.7.2 1-1 .4-2.1.6-3.2.6a5.56 5.56 0 0 1-1.29-.06 6.57 6.57 0 0 1-1.25-.33c-.4-.16-.8-.35-1.16-.6s-.7-.5-1-.82c-1.1-1.3-1.7-3-1.6-4.7 0-.9.1-1.7.4-2.6.2-.7.6-1.4 1.1-2s1.2-1.1 1.9-1.4c.8-.4 1.7-.5 2.6-.5.6 0 1.2 0 1.8.1.5.1 1 .2 1.5.4 0 .3 0 .7-.1 1l-.3 1c-.9-.3-1.8-.4-2.7-.4-1.1-.1-2.1.4-2.8 1.2-.7 1-1 2.1-.9 3.3-.1 1.2.2 2.4 1 3.4.8.7 1.8 1.1 2.9 1.1.4 0 .9 0 1.3-.1.5-.1.9-.2 1.3-.4.1.3.3.5.3.8zm2.1-9.2c0-.1-.1-.3-.1-.4v-1c0-.2 0-.3.1-.4h3.9v12.4c-.2 0-.4.1-.6.1h-1.1c-.2 0-.4 0-.6-.1V63.8h-1.6zm1.1-4.6c0-.2-.1-.4-.1-.6v-1.2c0-.2 0-.4.1-.6.2 0 .5-.1.7-.1h1.2c.2 0 .4 0 .6.1 0 .2.1.4.1.6v1.2c0 .2 0 .4-.1.6-.2 0-.4.1-.6.1H308c-.3 0-.5 0-.7-.1zm7.3-2.6h1.2l.6.1v13.9c0 .4 0 .7.1 1.1l.3.6c.1.1.3.2.5.3.2 0 .4.1.6.1h.5c.2 0 .3 0 .5-.1.2.6.2 1.2.2 1.8-.3.1-.5.1-.8.2h-.9c-.4 0-.9-.1-1.3-.2s-.8-.3-1.1-.6-.6-.6-.7-1l-.13-.4c-.04-.13-.07-.26-.1-.4a2.76 2.76 0 0 1-.06-.4l-.02-.4V56.7l.6-.1zm-244-10.1L66 60.7c-.1.1-.1.2-.1.4s.1.4.1.5L69.4 73c.1.1.1.2.1.4 0 .7-.6 1.3-1.3 1.3h-.8c-3.8-.9-7.7-1.4-11.6-1.4h-.2c-3.9 0-7.8.5-11.6 1.4h-.9c-.7 0-1.3-.6-1.3-1.3 0-.1.1-.3.1-.4l3.4-11.4c.1-.1.1-.2.1-.4 0-.1 0-.3-.1-.4l-4.6-14.3c-.1-.1-.1-.1-.1-.2-.3-.9.3-1.9 1.2-2.2l3.4-1.2c.2-.1.3-.1.5-.1.6 0 1.2.5 1.3 1.1l.9 4.7c0 .7.6 1.3 1.3 1.3h.3l1.9-.3c.7 0 1.3-.6 1.3-1.3v-.2l-.5-5.5v-.1c0-.7.6-1.3 1.3-1.3H58c.7 0 1.3.6 1.3 1.3v.1l-.5 5.6v.2c0 .7.6 1.3 1.3 1.3l2 .4h.3c.7 0 1.3-.6 1.3-1.3l.7-4.7c0-.7.6-1.3 1.3-1.3h.4l.1.1 3.3 1.2c.1 0 .1.1.2.1.9.4 1.3 1.4.9 2.3zM26.2 33.2l-4 12.6c-.1.1-.1.3-.1.4s.1.3.1.4l2.9 9.8c.1.1.1.3.1.4 0 .6-.6 1.1-1.2 1.1h-.4c-.82-.2-1.64-.37-2.47-.52s-1.66-.28-2.5-.38c-.84-.1-1.68-.18-2.52-.23s-1.68-.07-2.52-.07h-.2c-.84 0-1.68.02-2.52.07s-1.68.13-2.52.23c-.83.1-1.66.23-2.5.38s-1.65.32-2.47.52h-.7c-.7 0-1.2-.6-1.2-1.2-.1-.1 0-.2 0-.3l2.9-9.9c.1-.1.1-.3.1-.4s-.1-.3-.1-.4L.5 33.3c-.1-.1-.1-.1-.1-.2-.3-.8.2-1.7 1-1.9l2.9-1.1c.1-.1.3-.1.4-.1.5 0 1 .4 1.1 1l.4 4.2c.1.6.6 1.1 1.2 1.1h.2l1.7-.2c.6-.1 1.1-.6 1.1-1.2v-.2l-.4-4.8v-.1c0-.7.6-1.2 1.2-1.2h3.9c.7 0 1.2.6 1.2 1.2v.1l-.4 4.8v.2c0 .6.5 1.2 1.1 1.2l1.7.2h.2c.7 0 1.2-.5 1.2-1.1l.6-4.1c0-.6.6-1.1 1.2-1.1h.4l2.9 1.1c.1.1.1.1.2.1.8.3 1.1 1.2.8 2zM57.6 4.7l-3.5 10.9v.3c0 .1.1.2.1.3l2.5 8.6c.1.1.1.2.1.3.01.13-.01.27-.06.4a1.08 1.08 0 0 1-.21.34 1.08 1.08 0 0 1-.34.21c-.12.05-.26.07-.4.06h-.6c-2.9-.7-5.8-1-8.7-1h-.2c-2.9 0-5.8.3-8.7 1H37c-.13.01-.27-.01-.4-.06a1.08 1.08 0 0 1-.34-.21 1.08 1.08 0 0 1-.21-.34c-.05-.12-.07-.26-.06-.4v-.3l2.6-8.6c.1-.1.1-.2.1-.3s-.1-.2-.1-.3L35.2 4.8c-.1-.1-.1-.1-.1-.2-.2-.6.2-1.4.9-1.6l2.5-.9c.1-.1.2-.1.3-.1.5 0 .9.3 1 .8l.6 3.7c0 .5.5.9 1 .9h.2l1.4-.2c.13.01.27-.01.4-.06a1.08 1.08 0 0 0 .34-.21 1.08 1.08 0 0 0 .21-.34c.05-.12.07-.26.06-.4V6l-.4-4v-.2c-.01-.13.01-.27.06-.4a1.08 1.08 0 0 1 .21-.34 1.08 1.08 0 0 1 .34-.21c.12-.05.26-.07.4-.06H48c.13-.01.27.01.4.06a1.08 1.08 0 0 1 .34.21 1.08 1.08 0 0 1 .21.34c.05.12.07.26.06.4v.1l-.4 4.2v.2c-.01.13.01.27.06.4a1.08 1.08 0 0 0 .21.34 1.08 1.08 0 0 0 .34.21c.12.05.26.07.4.06l1.4.2h.2c.13.01.27-.01.4-.06a1.08 1.08 0 0 0 .34-.21 1.08 1.08 0 0 0 .21-.34c.05-.12.07-.26.06-.4l.6-3.5c-.01-.13.01-.27.06-.4a1.08 1.08 0 0 1 .21-.34 1.08 1.08 0 0 1 .34-.21c.12-.05.26-.07.4-.06h.4l2.5.9c.1.1.2.1.2.1.7.3 1 1 .7 1.7zm32.8 12h.8v47.4h-.8V16.7z"/></svg>