<svg width="20" height="20" viewBox="0 0 20 20" fill="none" xmlns="http://www.w3.org/2000/svg">
<path fill-rule="evenodd" clip-rule="evenodd" d="M7.88778 9.72652L0 17.6143L1.41421 19.0285L9.25323 11.1895L17.1863 19.6892L18.6484 18.3245L10.6683 9.77445L19.0285 1.41421L17.6143 0L9.30283 8.31147L1.65156 0.113681L0.189452 1.47832L7.88778 9.72652Z" fill="white"/>
<path fill-rule="evenodd" clip-rule="evenodd" d="M7.88778 9.72652L0 17.6143L1.41421 19.0285L9.25323 11.1895L17.1863 19.6892L18.6484 18.3245L10.6683 9.77445L19.0285 1.41421L17.6143 0L9.30283 8.31147L1.65156 0.113681L0.189452 1.47832L7.88778 9.72652Z" fill="white"/>
<path fill-rule="evenodd" clip-rule="evenodd" d="M7.88778 9.72652L0 17.6143L1.41421 19.0285L9.25323 11.1895L17.1863 19.6892L18.6484 18.3245L10.6683 9.77445L19.0285 1.41421L17.6143 0L9.30283 8.31147L1.65156 0.113681L0.189452 1.47832L7.88778 9.72652Z" fill="#03313E"/>
</svg>
