<svg width="39" height="39" viewBox="0 0 39 39" fill="none" xmlns="http://www.w3.org/2000/svg">
<rect x="1" y="1" width="37" height="37" rx="3" fill="white"/>
<path d="M18.6522 19.9556C19.6177 19.9561 20.5701 20.1848 21.4348 20.624V19.0667C20.2747 18.6038 19.0217 18.4373 17.7844 18.5816C16.5472 18.726 15.3631 19.1768 14.3349 19.895C13.3067 20.6132 12.4655 21.5771 11.8844 22.7029C11.3032 23.8288 10.9997 25.0826 11 26.3556V27.0667H21.4348V25.6444H12.433C12.6041 24.0805 13.3329 22.6357 14.4801 21.5863C15.6274 20.5369 17.1127 19.9563 18.6522 19.9556ZM18.6522 17.1111C17.9642 17.1111 17.2918 16.9026 16.7198 16.5119C16.1478 16.1212 15.7019 15.5659 15.4387 14.9162C15.1754 14.2665 15.1065 13.5516 15.2407 12.8619C15.375 12.1722 15.7062 11.5387 16.1927 11.0414C16.6791 10.5441 17.2989 10.2055 17.9736 10.0683C18.6483 9.93113 19.3477 10.0015 19.9832 10.2707C20.6188 10.5398 21.162 10.9955 21.5442 11.5802C21.9264 12.1649 22.1304 12.8523 22.1304 13.5556C22.1304 14.4985 21.764 15.4029 21.1117 16.0697C20.4594 16.7365 19.5747 17.1111 18.6522 17.1111ZM18.6522 11.4222C18.2394 11.4222 17.8359 11.5473 17.4927 11.7818C17.1495 12.0162 16.882 12.3493 16.7241 12.7392C16.5661 13.129 16.5248 13.5579 16.6053 13.9717C16.6858 14.3856 16.8846 14.7657 17.1765 15.0641C17.4683 15.3624 17.8402 15.5656 18.245 15.6479C18.6499 15.7302 19.0695 15.688 19.4508 15.5265C19.8322 15.365 20.1581 15.0916 20.3874 14.7408C20.6167 14.3899 20.7391 13.9775 20.7391 13.5556C20.7391 12.9898 20.5193 12.4471 20.1279 12.0471C19.7365 11.647 19.2057 11.4222 18.6522 11.4222ZM27 22.8H24.2174V19.9556H22.8261V22.8H20.0435V24.2222H22.8261V27.0667H24.2174V24.2222H27V22.8Z" fill="#059DF2"/>
<rect x="1" y="1" width="37" height="37" rx="3" stroke="#059DF2" stroke-width="2"/>
</svg>
